<svg xmlns="http://www.w3.org/2000/svg" height="594pt" version="1.1" viewBox="-35 1 594 594.55624" width="594pt">
<g id="surface1">
<path d="M 81.734375 427.515625 C 68.707031 435.027344 64.234375 451.671875 71.746094 464.703125 C 71.769531 464.746094 71.792969 464.792969 71.824219 464.832031 L 91.527344 498.925781 C 99.019531 511.914062 115.613281 516.375 128.605469 508.898438 L 161.386719 489.613281 C 162.496094 488.980469 163.894531 489.121094 164.851562 489.96875 C 179.25 502.585938 195.957031 512.296875 214.050781 518.570312 C 215.253906 518.976562 216.066406 520.105469 216.078125 521.375 L 216.078125 559.351562 C 216.078125 574.355469 228.242188 586.519531 243.246094 586.519531 L 282.65625 586.519531 C 297.660156 586.519531 309.824219 574.355469 309.824219 559.351562 L 309.824219 521.375 C 309.835938 520.105469 310.644531 518.976562 311.851562 518.570312 C 329.878906 512.347656 346.542969 502.722656 360.933594 490.207031 C 361.890625 489.359375 363.285156 489.21875 364.398438 489.851562 L 397.355469 508.898438 C 410.335938 516.382812 426.925781 511.949219 434.4375 498.984375 L 453.960938 464.832031 C 461.414062 451.851562 456.980469 435.289062 444.050781 427.753906 L 411.148438 408.765625 C 410.046875 408.128906 409.464844 406.855469 409.71875 405.601562 C 411.070312 398.246094 411.867188 390.804688 412.105469 383.328125 L 412.105469 380.222656 L 332.570312 380.222656 L 332.570312 382.972656 C 329.589844 421.339844 296.078125 450.03125 257.707031 447.050781 C 223.476562 444.394531 196.285156 417.203125 193.628906 382.972656 L 193.628906 380.222656 L 113.617188 380.222656 L 113.617188 383.328125 C 113.851562 390.804688 114.652344 398.25 116.007812 405.601562 C 116.257812 406.855469 115.679688 408.128906 114.574219 408.765625 Z M 81.734375 427.515625 " style=" stroke:none;fill-rule:nonzero;fill:rgb(17.647059%,63.921569%,100%);fill-opacity:1;" />
<path d="M 489.066406 265.703125 C 489.039062 168.296875 426.628906 81.855469 334.183594 51.171875 L 329.105469 49.5 L 330.300781 54.695312 C 331.472656 59.644531 332.074219 64.714844 332.09375 69.800781 L 332.09375 197.457031 C 332.054688 218.816406 314.757812 236.113281 293.402344 236.148438 L 232.316406 236.148438 C 210.960938 236.113281 193.664062 218.816406 193.625 197.457031 L 193.625 69.738281 C 193.644531 64.652344 194.246094 59.582031 195.417969 54.632812 L 196.613281 49.4375 L 191.535156 51.109375 C 99.089844 81.824219 36.707031 168.289062 36.714844 265.703125 L 36.714844 314.90625 L 489.007812 314.90625 Z M 489.066406 265.703125 " style=" stroke:none;fill-rule:nonzero;fill:rgb(100%,86.27451%,25.882353%);fill-opacity:1;" />
<path d="M 492.050781 320.875 L 33.726562 320.875 C 19.039062 320.875 7.128906 332.789062 7.128906 347.476562 C 7.128906 362.164062 19.039062 374.078125 33.726562 374.078125 L 491.992188 374.078125 C 506.679688 374.078125 518.59375 362.164062 518.59375 347.476562 C 518.59375 332.785156 506.679688 320.875 491.992188 320.875 C 491.992188 320.875 492.050781 320.875 492.050781 320.875 Z M 492.050781 320.875 " style=" stroke:none;fill-rule:nonzero;fill:rgb(100%,86.27451%,25.882353%);fill-opacity:1;" />
<path d="M 232.320312 230.179688 L 293.460938 230.179688 C 311.515625 230.144531 326.152344 215.515625 326.179688 197.457031 L 326.179688 69.738281 C 326.144531 36.183594 298.953125 8.992188 265.398438 8.957031 L 260.441406 8.957031 C 226.863281 8.957031 199.636719 36.160156 199.597656 69.738281 L 199.597656 197.457031 C 199.628906 215.515625 214.257812 230.148438 232.320312 230.179688 Z M 232.320312 230.179688 " style=" stroke:none;fill-rule:nonzero;fill:rgb(100%,86.27451%,25.882353%);fill-opacity:1;" />
<path d="M 193.628906 197.457031 L 193.628906 69.738281 C 193.644531 64.652344 194.25 59.582031 195.417969 54.632812 L 196.613281 49.4375 L 191.539062 51.109375 C 99.089844 81.824219 36.707031 168.289062 36.714844 265.703125 L 36.714844 314.90625 L 262.890625 314.90625 L 262.890625 236.148438 L 232.320312 236.148438 C 210.960938 236.117188 193.65625 218.816406 193.628906 197.457031 Z M 193.628906 197.457031 " style=" stroke:none;fill-rule:nonzero;fill:rgb(96.862745%,76.078431%,24.313725%);fill-opacity:1;" />
<path d="M 7.15625 347.445312 C 7.195312 362.105469 19.070312 373.980469 33.726562 374.015625 L 262.890625 374.015625 L 262.890625 320.875 L 33.726562 320.875 C 19.0625 320.914062 7.1875 332.789062 7.15625 347.445312 Z M 7.15625 347.445312 " style=" stroke:none;fill-rule:nonzero;fill:rgb(96.862745%,76.078431%,24.313725%);fill-opacity:1;" />
<path d="M 260.382812 8.957031 C 226.824219 8.992188 199.632812 36.183594 199.597656 69.738281 L 199.597656 197.457031 C 199.636719 215.515625 214.265625 230.140625 232.320312 230.175781 L 262.890625 230.175781 L 262.890625 9.253906 Z M 260.382812 8.957031 " style=" stroke:none;fill-rule:nonzero;fill:rgb(96.862745%,76.078431%,24.313725%);fill-opacity:1;" />
<path d="M 193.449219 382.734375 L 193.449219 379.988281 L 113.617188 379.988281 L 113.617188 383.09375 C 113.851562 390.566406 114.652344 398.011719 116.007812 405.363281 C 116.257812 406.617188 115.679688 407.890625 114.574219 408.527344 L 81.675781 427.515625 C 68.664062 435.050781 64.222656 451.710938 71.757812 464.71875 C 71.78125 464.757812 71.796875 464.796875 71.824219 464.832031 L 91.527344 498.925781 C 99.019531 511.914062 115.613281 516.375 128.605469 508.898438 L 161.386719 489.613281 C 162.496094 488.980469 163.894531 489.121094 164.851562 489.96875 C 179.25 502.585938 195.957031 512.296875 214.050781 518.570312 C 215.253906 518.976562 216.066406 520.105469 216.078125 521.375 L 216.078125 559.351562 C 216.078125 574.355469 228.242188 586.519531 243.246094 586.519531 L 262.890625 586.519531 L 262.890625 446.921875 C 226.621094 446.710938 196.503906 418.875 193.449219 382.734375 Z M 193.449219 382.734375 " style=" stroke:none;fill-rule:nonzero;fill:rgb(18.039216%,55.294118%,100%);fill-opacity:1;" />
<path d="M 498.023438 312.457031 L 498.023438 265.703125 C 497.703125 161.25 428.78125 69.425781 328.570312 39.945312 C 317.0625 15.597656 292.566406 0.046875 265.636719 0 L 260.679688 0 C 233.554688 -0.160156 208.800781 15.421875 197.210938 39.945312 C 97 69.425781 28.078125 161.25 27.757812 265.703125 L 27.757812 312.457031 C 8.519531 317.085938 -3.320312 336.429688 1.304688 355.667969 C 4.972656 370.894531 18.101562 381.980469 33.726562 383.03125 L 104.660156 383.03125 C 104.859375 389.691406 105.480469 396.335938 106.511719 402.914062 L 77.195312 419.8125 C 59.972656 429.820312 54.078125 451.863281 64 469.132812 L 83.765625 503.226562 C 93.773438 520.453125 115.816406 526.34375 133.085938 516.421875 L 162.402344 499.523438 C 175.78125 510.546875 190.894531 519.28125 207.125 525.378906 L 207.125 559.171875 C 207.285156 578.890625 223.230469 594.839844 242.949219 595 L 282.355469 595 C 302.074219 594.839844 318.023438 578.890625 318.183594 559.171875 L 318.183594 525.378906 C 334.414062 519.28125 349.523438 510.546875 362.90625 499.523438 L 392.222656 516.421875 C 409.390625 526.589844 431.546875 520.917969 441.714844 503.75 C 441.816406 503.578125 441.917969 503.398438 442.019531 503.226562 L 461.722656 469.132812 C 471.644531 451.863281 465.753906 429.820312 448.527344 419.8125 L 419.210938 402.914062 C 420.242188 396.335938 420.859375 389.6875 421.0625 383.03125 L 491.996094 383.03125 C 511.734375 381.699219 526.664062 364.617188 525.332031 344.878906 C 524.28125 329.253906 513.191406 316.117188 497.96875 312.457031 Z M 260.382812 11.941406 L 265.335938 11.941406 C 297.246094 11.976562 323.101562 37.832031 323.136719 69.738281 L 323.136719 197.457031 C 323.136719 213.941406 309.765625 227.3125 293.28125 227.3125 L 232.320312 227.3125 C 215.832031 227.3125 202.464844 213.941406 202.464844 197.457031 L 202.464844 69.738281 C 202.496094 37.789062 228.425781 11.910156 260.382812 11.941406 Z M 192.492188 53.738281 C 191.277344 58.902344 190.652344 64.191406 190.640625 69.5 L 190.640625 197.457031 C 190.640625 220.539062 209.355469 239.253906 232.4375 239.253906 L 293.460938 239.253906 C 316.542969 239.253906 335.257812 220.539062 335.257812 197.457031 L 335.257812 69.738281 C 335.246094 64.433594 334.625 59.140625 333.40625 53.976562 C 424.429688 84.542969 485.871094 169.6875 486.199219 265.703125 L 486.199219 311.917969 L 39.699219 311.917969 L 39.699219 265.703125 C 40.03125 169.667969 101.503906 84.519531 192.554688 53.976562 Z M 409.652344 411.097656 L 442.554688 430.082031 C 454.078125 436.789062 458.023438 451.535156 451.390625 463.101562 L 431.6875 497.195312 C 425.003906 508.75 410.226562 512.703125 398.667969 506.03125 L 365.707031 486.984375 C 363.5 485.695312 360.710938 485.964844 358.78125 487.640625 C 344.679688 499.941406 328.34375 509.40625 310.65625 515.523438 C 308.25 516.367188 306.636719 518.648438 306.65625 521.199219 L 306.65625 559.171875 C 306.496094 572.296875 295.898438 582.894531 282.773438 583.054688 L 243.183594 583.054688 C 230.0625 582.894531 219.460938 572.296875 219.300781 559.171875 L 219.300781 521.199219 C 219.320312 518.648438 217.707031 516.367188 215.300781 515.523438 C 197.644531 509.417969 181.328125 499.96875 167.234375 487.699219 C 165.308594 486.023438 162.519531 485.753906 160.308594 487.042969 L 127.351562 506.089844 C 116.011719 512.824219 101.351562 509.09375 94.617188 497.75 C 94.523438 497.582031 94.425781 497.421875 94.332031 497.253906 L 74.628906 463.160156 C 67.992188 451.59375 71.941406 436.847656 83.464844 430.140625 L 116.125 411.09375 C 118.335938 409.816406 119.484375 407.273438 118.992188 404.765625 C 117.671875 397.570312 116.894531 390.285156 116.660156 382.972656 L 190.460938 382.972656 C 193.5 422.988281 228.40625 452.964844 268.425781 449.925781 C 304.214844 447.203125 332.652344 418.761719 335.375 382.972656 L 409.117188 382.972656 C 408.882812 390.285156 408.101562 397.570312 406.789062 404.765625 C 406.285156 407.273438 407.441406 409.820312 409.652344 411.097656 Z M 202.40625 382.972656 L 323.375 382.972656 C 320.222656 416.390625 290.570312 440.933594 257.152344 437.78125 C 228.089844 435.039062 205.085938 412.035156 202.34375 382.972656 Z M 492.050781 371.03125 L 33.726562 371.03125 C 20.6875 369.0625 11.710938 356.886719 13.683594 343.847656 C 15.246094 333.492188 23.375 325.371094 33.726562 323.800781 L 491.992188 323.800781 C 505.03125 325.773438 514.007812 337.945312 512.035156 350.988281 C 510.472656 361.339844 502.34375 369.460938 491.992188 371.03125 Z M 492.050781 371.03125 " style=" stroke:none;fill-rule:nonzero;fill:rgb(6.27451%,12.156863%,47.843137%);fill-opacity:1;" />
</g>
</svg>